<svg xmlns="http://www.w3.org/2000/svg" xmlns:xlink="http://www.w3.org/1999/xlink" version="1.1" x="0px" y="0px" viewBox="0 0 468 500" stroke="currentColor" fill="currentColor" style="enable-background:new 0 0 468 468;" xml:space="preserve"><g><g><g><g><path d="M86.697,68.747H23.633C10.602,68.747,0,58.148,0,45.121c0-12.942,10.464-23.487,23.378-23.625      C28.388,9,40.602,0.705,54.227,0.705c13.666,0,25.875,8.313,30.872,20.848c0.54-0.039,1.074-0.058,1.599-0.058      c13.031,0,23.633,10.599,23.633,23.626S99.729,68.747,86.697,68.747z M23.633,25.495C12.808,25.495,4,34.299,4,45.121      s8.808,19.626,19.633,19.626h63.064c10.825,0,19.633-8.804,19.633-19.626c0.088-11.768-10.643-21.132-22.296-19.438      c-0.949,0.131-1.853-0.428-2.163-1.332C77.832,12.6,66.723,4.705,54.227,4.705c-12.422,0-23.51,7.833-27.591,19.492      C26.342,25.034,25.181,25.527,23.633,25.495z"/></g></g><g><g><g><g><path d="M46.875,30.067c-2.887,0-5.227,2.56-5.227,5.718s2.34,5.718,5.227,5.718c2.887,0,5.227-2.56,5.227-5.718        S49.761,30.067,46.875,30.067z"/></g></g><g><g><g><ellipse cx="79.466" cy="35.785" rx="5.227" ry="5.718"/></g></g></g></g><g><g><path d="M63.17,59.162c-4.006,0-7.266-3.245-7.266-7.234v-1.375c0-0.829,0.672-1.5,1.5-1.5s1.5,0.671,1.5,1.5v1.375       c0,2.334,1.913,4.234,4.266,4.234s4.266-1.899,4.266-4.234v-1.375c0-0.829,0.672-1.5,1.5-1.5s1.5,0.671,1.5,1.5v1.375       C70.436,55.917,67.176,59.162,63.17,59.162z"/></g></g></g></g><g><g><g><g><path d="M388.534,154.783c-2.887,0-5.227,2.56-5.227,5.718s2.34,5.718,5.227,5.718c2.887,0,5.227-2.56,5.227-5.718       S391.421,154.783,388.534,154.783z"/></g></g><g><g><path d="M421.125,154.783c-2.887,0-5.227,2.56-5.227,5.718s2.34,5.718,5.227,5.718c2.887,0,5.227-2.56,5.227-5.718       S424.012,154.783,421.125,154.783z"/></g></g></g><g><g><path d="M404.83,183.879c-4.006,0-7.266-3.245-7.266-7.234v-1.375c0-0.829,0.672-1.5,1.5-1.5s1.5,0.671,1.5,1.5v1.375      c0,2.334,1.913,4.234,4.266,4.234s4.266-1.899,4.266-4.234v-1.375c0-0.829,0.672-1.5,1.5-1.5s1.5,0.671,1.5,1.5v1.375      C412.096,180.634,408.836,183.879,404.83,183.879z"/></g></g></g><g><g><path d="M111.277,99.583l-21.328-9.901c-2.339-1.127-4.053,2.57-1.684,3.628l14.389,6.68     c-10.197,1.413-19.884,5.568-27.865,12.076c-22.825,18.611-35.916,46.159-35.916,75.579c0,11.132,1.861,22.049,5.531,32.448     c0.843,2.469,4.668,1.096,3.771-1.331c-3.519-9.97-5.303-20.439-5.303-31.117c0-28.213,12.555-54.631,34.443-72.479     c8.124-6.624,18.151-10.624,28.624-11.521l-11.29,13.46c-1.695,1.963,1.421,4.584,3.064,2.57l14.253-16.993     C112.83,101.474,111.842,99.845,111.277,99.583z"/><g><g><circle cx="56.778" cy="240.422" r="5.003"/></g></g></g><path d="M442.768,146.27c-4.996-12.535-17.204-20.848-30.871-20.848c-2.625,0-5.194,0.314-7.673,0.901    c-5.419-5.761-11.544-10.808-18.238-14.995c-9.59-5.998-20.879-9.167-32.646-9.167c-1.104,0-2,0.896-2,2s0.896,2,2,2    c11.017,0,21.572,2.959,30.525,8.559c5.85,3.658,11.25,7.998,16.093,12.922c-8.481,3.257-15.432,9.899-18.909,18.572    c-12.914,0.137-23.378,10.682-23.378,23.625c0,13.027,10.602,23.626,23.633,23.626h43.71    c-0.722,14.798-5.139,29.042-12.874,41.595l-1.436-16.367c-0.097-1.101-1.062-1.916-2.167-1.817    c-1.101,0.096-1.914,1.066-1.817,2.167l1.938,22.094c0.076,1.275,1.495,2.173,2.68,1.704l22.082-8.08    c1.037-0.38,1.57-1.528,1.19-2.566c-0.379-1.038-1.53-1.568-2.565-1.191l-16.405,6.003c8.065-13.145,12.655-28.056,13.377-43.541    h15.352c13.031,0,23.633-10.599,23.633-23.626C468.054,156.252,456.322,145.291,442.768,146.27z M444.367,189.464h-63.064    c-10.825,0-19.633-8.804-19.633-19.626s8.808-19.626,19.633-19.626c1.174,0.133,2.576,0.014,3.003-1.298    c4.081-11.659,15.169-19.492,27.591-19.492c12.496,0,23.605,7.896,27.644,19.647c0.31,0.903,1.213,1.461,2.164,1.332    c11.652-1.695,22.384,7.671,22.296,19.438C464,180.66,455.192,189.464,444.367,189.464z"/></g><g><g><g><circle cx="221.083" cy="404.079" r="5.003"/></g></g><path d="M413.084,267.448c-16.873-10.272-36.263-15.702-56.071-15.702c-25.789-0.124-55.789,14.701-89.532,43.849    c-16.341,14.338-18.538,17.423-33.106,32.494c-30.365-34.045-87.814-79.45-123.387-76.343    C43.787,250.692-9.38,315.916,5.065,381.533c10.247,50.05,54.793,86.377,105.922,86.377c28.23,0.969,64.056-21.372,88.892-43.295    c3.081-2.639,6.235-5.429,9.373-8.293c0.815-0.745,0.873-2.01,0.129-2.825c-0.743-0.815-2.009-0.874-2.826-0.129    c-10.065,9.224-21.714,18.793-32.104,25.999l8.073-22.668c0.429-1.118-0.344-2.454-1.527-2.639l-25.575-4.631    c28.907-22.404,39.122-33.241,51.888-46.793c31.998,34.644,51.073,58.118,91.455,85.026c41.121,27.39,81.456,26.136,119.391,1.26    c17.628-12.129,31.164-28.98,39.146-48.731c5.193-12.85,7.826-26.429,7.826-40.361    C465.126,321.822,445.671,287.288,413.084,267.448z M269.431,299.196l29.986,3.351l-11.837,27.867    c-12.958,11.638-20.5,19.853-26.901,26.391l-23.756-25.591C244.067,323.705,260.145,307.398,269.431,299.196z M34.162,396.775    l-25.34-16.851c-11.736-56.901,28.14-114.096,85.183-122.788l-17.916,21.639c-0.856,0.978-0.45,2.642,0.759,3.117l23.743,10.071    c-14.781,2.237-28.387,9.218-38.943,20.11c-14.479,14.862-21.428,35.652-18.8,56.263L34.162,396.775z M194.669,370.279    c-4.994,6.23-62.966,58.672-83.682,54.212c-32.378,0-59.943-24.177-64.118-56.238c-5.176-37.647,23.9-72.055,61.92-73.033    c28.318-1.518,68.813,37.66,82.144,50.572c0,0,0,0.001,0.001,0.001c6.601,6.49,11.402,11.628,13.568,13.99L194.669,370.279z     M291.717,413.51c-1.196,0.082-2.081,1.344-1.752,2.496l6.63,25.45c-45.79-31.708-63.126-58.649-102.483-98.148l-8.522-27.848    l30.485-0.2c40.602,39.075,39.739,50.701,99.194,96.081L291.717,413.51z M417.748,382.12c0,0,0,0.001,0,0.001    c-9.311,25.343-33.718,42.37-60.735,42.37c-9.248,0-20.968-4.497-34.832-13.365c-26.597-17.011-53.031-45.104-58.79-51.376    c6.566-6.702,14.104-14.928,27.195-26.662c29.758-26.675,62.847-50.617,97.481-29.991    C415.804,317.828,428.9,352.827,417.748,382.12z M453.907,397.898l-26.66,10.557l-5.545-25.505    c10.685-28.8-0.637-63.144-26.144-79.955l23.331-1.259c1.199-0.036,2.13-1.264,1.846-2.427l-5.698-25.864    c28.951,19.435,46.089,51.38,46.089,86.384C461.126,372.958,458.697,385.762,453.907,397.898z"/><g><g><g><g><g><g><g><path d="M99.649,390.784h-3.639c-5.817,0-10.551-4.76-10.551-10.611V368.54l-6.545-6.591c-0.774-0.78-0.774-2.039,0-2.818           l6.545-6.59v-11.634c0-5.851,4.733-10.61,10.551-10.61h3.639c1.104,0,2,0.896,2,2s-0.896,2-2,2h-3.639           c-3.612,0-6.551,2.965-6.551,6.61v12.458c0,0.528-0.209,1.035-0.581,1.409l-5.727,5.766l5.727,5.767           c0.372,0.375,0.581,0.881,0.581,1.409v12.458c0,3.645,2.938,6.611,6.551,6.611h3.639c1.104,0,2,0.896,2,2           S100.754,390.784,99.649,390.784z"/></g></g></g><g><g><g><path d="M136.704,390.784h-3.639c-1.104,0-2-0.896-2-2s0.896-2,2-2h3.639c3.612,0,6.552-2.966,6.552-6.611v-12.458           c0-0.528,0.209-1.035,0.581-1.409l5.727-5.767l-5.727-5.766c-0.372-0.375-0.581-0.881-0.581-1.409v-12.458           c0-3.645-2.939-6.61-6.552-6.61h-3.639c-1.104,0-2-0.896-2-2s0.896-2,2-2h3.639c5.818,0,10.552,4.76,10.552,10.61v11.634           l6.545,6.59c0.774,0.78,0.774,2.039,0,2.818l-6.545,6.591v11.633C147.256,386.024,142.522,390.784,136.704,390.784z"/></g></g></g></g><g><g><ellipse cx="116.358" cy="360.54" rx="4.988" ry="5.023"/></g></g><g><g><ellipse cx="99.256" cy="360.54" rx="3.563" ry="3.588"/></g></g><g><g><ellipse cx="133.46" cy="360.54" rx="3.563" ry="3.588"/></g></g></g></g><g><g><g><path d="M332.124,377.946c-0.432,0-0.865-0.139-1.231-0.425l-21.51-16.83c-0.484-0.379-0.768-0.96-0.768-1.575        s0.283-1.196,0.768-1.575l21.51-16.83c0.87-0.68,2.126-0.528,2.808,0.343c0.681,0.87,0.527,2.127-0.343,2.808l-19.496,15.254        l19.496,15.254C334.865,375.465,333.948,378.015,332.124,377.946z"/></g></g><g><g><path d="M371.161,377.946c-1.824,0.069-2.74-2.482-1.233-3.575l19.496-15.254l-19.496-15.254        c-0.87-0.681-1.023-1.938-0.343-2.808c0.682-0.87,1.938-1.022,2.808-0.343l21.509,16.83c0.484,0.379,0.768,0.96,0.768,1.575        s-0.283,1.196-0.768,1.575l-21.509,16.83C372.026,377.807,371.593,377.946,371.161,377.946z"/></g></g><g><g><path d="M347.858,378.056c-1.261,0.014-2.245-1.206-1.954-2.437l7.571-33.879c0.241-1.078,1.308-1.759,2.389-1.516        c1.078,0.241,1.756,1.31,1.516,2.388l-7.571,33.879C349.601,377.423,348.774,378.056,347.858,378.056z"/></g></g></g></g><g><path d="M332.348,80.698l-21.691-3.161c-1.586-5.369-3.737-10.568-6.411-15.488l13.111-17.601     c0.593-0.796,0.513-1.906-0.188-2.608L292.34,16.977c-0.703-0.703-1.814-0.786-2.612-0.189l-17.573,13.128     c-4.911-2.676-10.101-4.83-15.462-6.418l-3.156-21.726c-0.144-0.983-0.986-1.712-1.979-1.712h-35.113     c-0.993,0-1.836,0.729-1.979,1.712l-3.156,21.726c-5.361,1.588-10.551,3.742-15.462,6.418l-17.573-13.128     c-0.798-0.596-1.91-0.513-2.612,0.189L150.832,41.84c-0.701,0.702-0.781,1.812-0.188,2.608l13.111,17.601     c-2.674,4.92-4.825,10.12-6.411,15.488l-21.691,3.161c-0.983,0.143-1.712,0.986-1.712,1.979v35.162     c0,0.993,0.729,1.836,1.712,1.979l21.691,3.161c1.586,5.37,3.737,10.568,6.411,15.488l-13.111,17.602     c-0.593,0.796-0.513,1.906,0.188,2.608l24.828,24.863c0.701,0.703,1.813,0.785,2.612,0.189l17.573-13.128     c4.911,2.676,10.101,4.83,15.462,6.418l3.156,21.725c0.144,0.983,0.986,1.712,1.979,1.712h35.113     c0.993,0,1.836-0.729,1.979-1.712l3.156-21.725c5.361-1.588,10.551-3.742,15.462-6.418l17.573,13.128     c0.799,0.597,1.91,0.514,2.612-0.189l24.828-24.863c0.701-0.702,0.781-1.812,0.188-2.608l-13.111-17.602     c2.674-4.919,4.825-10.118,6.411-15.488l21.691-3.161c0.983-0.143,1.712-0.986,1.712-1.979V82.677     C334.06,81.684,333.331,80.841,332.348,80.698z M288.034,100.258c0,29.795-24.239,54.035-54.034,54.035     s-54.034-24.24-54.034-54.035S204.205,46.224,234,46.224S288.034,70.463,288.034,100.258z"/><g><g><path d="M254.124,123.259c-0.531,0-1.063-0.211-1.456-0.629l-20.124-21.369C232.194,100.89,232,100.4,232,99.89V70.482       c0-1.104,0.896-2,2-2s2,0.896,2,2v28.614l19.58,20.792C256.797,121.095,255.808,123.318,254.124,123.259z"/></g></g></g></g></g></svg>
