<svg xmlns="http://www.w3.org/2000/svg" version="1.1" viewBox="0 0 100.0 110.0">
 <path d="m54 42.301c-3.3008 3.3008-2.6992 7.5-2.1016 9.6016-1.1016 1.5-2 3.1992-2.6992 4.6992-0.30078-0.60156-0.69922-1.3008-1.1992-1.8984 0.60156-2.1992 1-6.1992-2.1016-9.3008-4.1992-4.1992-11.602-3.1992-11.898-3.1992-0.69922 0.10156-1.1992 0.60156-1.3008 1.3008 0 0.30078-1 7.6992 3.1992 11.898 2 2 4.3008 2.5 6.3008 2.5 1.6992 0 3.1016-0.39844 3.8984-0.69922 1 1.6992 1.3008 3.1016 1.3984 3.6992-1.1016 3.5-1.3008 6.1016-1.3984 6.3984-0.10156 0.80078 0.5 1.6016 1.3008 1.6016h0.10156c0.80078 0 1.3984-0.60156 1.5-1.3984 0-0.10156 0.80078-7.3984 4.8008-13.398 0.80078 0.30078 2.1992 0.60156 3.6992 0.60156 2 0 4.3008-0.60156 6.3008-2.5 4.1992-4.1992 3.1992-11.602 3.1992-11.898-0.10156-0.69922-0.60156-1.1992-1.3008-1.3008 0 0.09375-7.3984-0.90625-11.699 3.293zm-13.5 9.8008c1.5 0.80078 2.6992 1.6992 3.6992 2.6016-1.6016 0.39844-4.1992 0.5-6.1016-1.3984-2.3008-2.3008-2.5-6.1992-2.3984-8.1992 2-0.10156 5.8984 0.10156 8.1992 2.3984 1.3008 1.3008 1.6992 2.8984 1.6992 4.3008-1-0.89844-2.1992-1.6992-3.6992-2.3984-0.69922-0.39844-1.6016-0.10156-2 0.69922-0.39844 0.79297-0.097657 1.6953 0.60156 1.9961zm21.398-1.9023c-1.8984 1.8984-4.3008 1.8008-5.8984 1.5 1.1016-1.1992 2.3984-2.3008 3.8984-3.1992 0.69922-0.39844 0.89844-1.3008 0.5-2.1016-0.39844-0.69922-1.3008-0.89844-2.1016-0.5-1.5 0.89844-2.8008 1.8984-3.8984 3.1016-0.10156-1.3984 0.30078-3.1016 1.6992-4.5 2.3008-2.3008 6.3008-2.5 8.1992-2.3984 0.10156 1.7969 0.003906 5.7969-2.3984 8.0977z"/>
 <path d="m92 38.699h-6c-0.19922 0-0.39844-0.10156-0.5-0.30078-0.60156-1.8008-1.3008-3.5-2.1992-5.1992-0.10156-0.19922 0-0.39844 0.10156-0.5l4.3008-4.3008c0.69922-0.69922 1-1.5 1-2.5s-0.39844-1.8008-1-2.5l-11.102-11.098c-1.3008-1.3008-3.6016-1.3008-4.8984 0l-4.3008 4.3008c-0.10156 0.10156-0.39844 0.19922-0.5 0.10156-1.6992-0.80078-3.3984-1.6016-5.1992-2.1992-0.19922-0.10156-0.30078-0.19922-0.30078-0.5l-0.003906-6.0039c0-1.8984-1.6016-3.5-3.5-3.5h-15.699c-1.8984 0-3.5 1.6016-3.5 3.5v6c0 0.19922-0.10156 0.39844-0.30078 0.5-1.8008 0.60156-3.5 1.3008-5.1992 2.1992-0.19922 0.10156-0.39844 0-0.5-0.10156l-4.3008-4.3008c-1.3008-1.3008-3.6016-1.3008-4.8984 0l-11.199 11.102c-0.69922 0.69922-1 1.5-1 2.5s0.39844 1.8008 1 2.5l4.3008 4.3008c0.10156 0.10156 0.19922 0.39844 0.10156 0.5-0.80078 1.6992-1.6016 3.3984-2.1992 5.1992-0.10156 0.19922-0.19922 0.30078-0.5 0.30078h-6.0039c-1.8984 0-3.5 1.6016-3.5 3.5v15.699c0 1.8984 1.6016 3.5 3.5 3.5h6c0.19922 0 0.39844 0.10156 0.5 0.30078 0.60156 1.8008 1.3008 3.5 2.1992 5.1992 0.10156 0.19922 0 0.39844-0.10156 0.5l-4.3008 4.3008c-0.69922 0.69922-1 1.5-1 2.5s0.39844 1.8008 1 2.5l11.102 11.102c1.3008 1.3008 3.6016 1.3008 4.8984 0l4.3008-4.3008c0.10156-0.19922 0.39844-0.19922 0.5-0.10156 1.6992 0.80078 3.3984 1.6016 5.1992 2.1992 0.19922 0.10156 0.30078 0.19922 0.30078 0.5v6c0 1.8984 1.6016 3.5 3.5 3.5h15.699c1.8984 0 3.5-1.6016 3.5-3.5v-6c0-0.19922 0.10156-0.39844 0.30078-0.5 1.8008-0.60156 3.5-1.3008 5.1992-2.1992 0.19922-0.10156 0.39844 0 0.5 0.10156l4.3008 4.3008c1.3008 1.3008 3.6016 1.3008 4.8984 0l11.102-11.102c0.69922-0.69922 1-1.5 1-2.5s-0.39844-1.8008-1-2.5l-4.3008-4.3008c-0.10156-0.10156-0.19922-0.39844-0.10156-0.5 0.80078-1.6992 1.6016-3.3984 2.1992-5.1992 0.10156-0.19922 0.19922-0.30078 0.5-0.30078h6c1.8984 0 3.5-1.6016 3.5-3.5l0.003907-15.699c0.10156-2-1.5-3.5-3.3984-3.5zm0.5 19.102c0 0.30078-0.19922 0.5-0.5 0.5h-6c-1.5 0-2.8008 1-3.3008 2.3984-0.5 1.6016-1.1992 3.3008-2 4.8008-0.69922 1.3008-0.39844 2.8984 0.69922 4l4.3008 4.3008c0.10156 0.10156 0.10156 0.30078 0.10156 0.30078s0 0.19922-0.10156 0.39844l-11.199 11.102c-0.10156 0.10156-0.30078 0.10156-0.30078 0.10156s-0.19922 0-0.39844-0.10156l-4.3008-4.3008c-1.1016-1.1016-2.6992-1.3008-4-0.69922-1.5 0.80078-3.1992 1.3984-4.8008 2-1.3984 0.5-2.3984 1.8008-2.3984 3.3008v6c0 0.30078-0.19922 0.5-0.5 0.5l-15.602-0.003906c-0.30078 0-0.5-0.19922-0.5-0.5v-6c0-1.5-1-2.8008-2.3984-3.3008-1.6016-0.5-3.3008-1.1992-4.8008-2-0.5-0.19922-1-0.39844-1.5-0.39844-0.89844 0-1.8008 0.39844-2.5 1l-4.3008 4.3008c-0.10156 0.10156-0.30078 0.10156-0.39844 0.10156-0.10156 0-0.19922 0-0.39844-0.10156l-11.004-11c-0.10156-0.10156-0.10156-0.30078-0.10156-0.39844 0-0.10156 0-0.19922 0.10156-0.39844l4.3008-4.3008c1.1016-1.1016 1.3008-2.6992 0.69922-4-0.80078-1.5-1.3984-3.1992-2-4.8008-0.5-1.3984-1.8008-2.3984-3.3008-2.3984l-6.0977-0.003906c-0.30078 0-0.5-0.19922-0.5-0.5v-15.5c0-0.30078 0.19922-0.5 0.5-0.5h6c1.5 0 2.8008-1 3.3008-2.3984 0.5-1.6016 1.1992-3.3008 2-4.8008 0.69922-1.3008 0.39844-2.8984-0.69922-4l-4.3008-4.3008c-0.10156-0.10156-0.10156-0.30078-0.10156-0.39844 0-0.10156 0-0.19922 0.10156-0.39844l11.102-11.102c0.10156-0.10156 0.30078-0.10156 0.39844-0.10156 0.10156 0 0.19922 0 0.39844 0.10156l4.3008 4.3008c1.1016 1.1016 2.6992 1.3008 4 0.69922 1.5-0.80078 3.1992-1.3984 4.8008-2 1.3984-0.5 2.3984-1.8008 2.3984-3.3008v-6c0-0.30078 0.19922-0.5 0.5-0.5h15.699c0.30078 0 0.5 0.19922 0.5 0.5v6c0 1.5 1 2.8008 2.3984 3.3008 1.6016 0.5 3.3008 1.1992 4.8008 2 1.3008 0.69922 2.8984 0.39844 4-0.69922l4.3008-4.3008c0.10156-0.10156 0.30078-0.10156 0.30078-0.10156s0.19922 0 0.39844 0.10156l11.102 11.102c0.10156 0.10156 0.10156 0.30078 0.10156 0.30078s0 0.19922-0.10156 0.39844l-4.3008 4.3008c-1.1016 1.1016-1.3008 2.6992-0.69922 4 0.80078 1.5 1.3984 3.1992 2 4.8008 0.5 1.3984 1.8008 2.3984 3.3008 2.3984h6c0.30078 0 0.5 0.19922 0.5 0.5z"/>
 <path d="m50 23.199c-14.801 0-26.801 12-26.801 26.801s12 26.801 26.801 26.801 26.801-12 26.801-26.801-12-26.801-26.801-26.801zm0 50.602c-13.102 0-23.801-10.699-23.801-23.801s10.699-23.801 23.801-23.801 23.801 10.699 23.801 23.801-10.699 23.801-23.801 23.801z"/>
</svg>
