<?xml version="1.0" encoding="UTF-8" standalone="no"?>
<svg
   id="Layer_1"
   viewBox="0 0 118.77626 177.6"
   width="990"
   height="1480"
   version="1.1"
   sodipodi:docname="figma.svg"
   inkscape:version="1.1.2 (0a00cf5339, 2022-02-04)"
   xmlns:inkscape="http://www.inkscape.org/namespaces/inkscape"
   xmlns:sodipodi="http://sodipodi.sourceforge.net/DTD/sodipodi-0.dtd"
   xmlns="http://www.w3.org/2000/svg"
   xmlns:svg="http://www.w3.org/2000/svg"
   xmlns:rdf="http://www.w3.org/1999/02/22-rdf-syntax-ns#"
   xmlns:cc="http://creativecommons.org/ns#"
   xmlns:dc="http://purl.org/dc/elements/1.1/">
  <defs
     id="defs16" />
  <sodipodi:namedview
     id="namedview14"
     pagecolor="#ffffff"
     bordercolor="#666666"
     borderopacity="1.0"
     inkscape:pageshadow="2"
     inkscape:pageopacity="0.0"
     inkscape:pagecheckerboard="0"
     showgrid="false"
     inkscape:zoom="0.2576"
     inkscape:cx="357.14286"
     inkscape:cy="1248.059"
     inkscape:window-width="1680"
     inkscape:window-height="953"
     inkscape:window-x="0"
     inkscape:window-y="0"
     inkscape:window-maximized="1"
     inkscape:current-layer="Layer_1" />
  <style
     id="style2">.st0{fill:#0acf83}.st1{fill:#a259ff}.st2{fill:#f24e1e}.st3{fill:#ff7262}.st4{fill:#1abcfe}</style>
  <title
     id="title4">Figma.logo</title>
  <desc
     id="desc6">Created using Figma</desc>
  <g
     id="g25"
     transform="translate(-42.784415,-59.379616)">
    <path
       id="path0_fill"
       class="st0"
       d="m 72.894337,236.74819 c 16.253571,0 29.444873,-13.1913 29.444873,-29.44487 V 177.85844 H 72.894337 c -16.253572,0 -29.444876,13.19131 -29.444876,29.44488 0,16.25357 13.191304,29.44487 29.444876,29.44487 z"
       style="stroke-width:0.588898" />
    <path
       id="path1_fill"
       class="st1"
       d="m 43.449461,148.41357 c 0,-16.25357 13.191304,-29.44487 29.444876,-29.44487 h 29.444873 v 58.88974 H 72.894337 c -16.253572,0 -29.444876,-13.1913 -29.444876,-29.44487 z"
       style="stroke-width:0.588898" />
    <path
       id="path1_fill_1_"
       class="st2"
       d="m 43.449461,89.523821 c 0,-16.253572 13.191304,-29.444876 29.444876,-29.444876 H 102.33921 V 118.9687 H 72.894337 c -16.253572,0 -29.444876,-13.19131 -29.444876,-29.444879 z"
       style="stroke-width:0.588898" />
    <path
       id="path2_fill"
       class="st3"
       d="m 102.33921,60.078945 h 29.44488 c 16.25357,0 29.44487,13.191304 29.44487,29.444876 0,16.253569 -13.1913,29.444879 -29.44487,29.444879 h -29.44488 z"
       style="stroke-width:0.588898" />
    <path
       id="path3_fill"
       class="st4"
       d="m 161.22896,148.41357 c 0,16.25357 -13.1913,29.44487 -29.44487,29.44487 -16.25357,0 -29.44488,-13.1913 -29.44488,-29.44487 0,-16.25357 13.19131,-29.44487 29.44488,-29.44487 16.25357,0 29.44487,13.1913 29.44487,29.44487 z"
       style="stroke-width:0.588898" />
  </g>
  <metadata
     id="metadata18">
    <rdf:RDF>
      <cc:Work
         rdf:about="">
        <dc:title>Figma.logo</dc:title>
      </cc:Work>
    </rdf:RDF>
  </metadata>
</svg>
