<?xml version="1.0" encoding="UTF-8" standalone="no"?>
<svg
   width="721"
   height="721"
   viewBox="0 0 721 721"
   fill="none"
   version="1.1"
   id="svg326"
   sodipodi:docname="openai.svg"
   inkscape:version="1.2.2 (b0a8486541, 2022-12-01)"
   xmlns:inkscape="http://www.inkscape.org/namespaces/inkscape"
   xmlns:sodipodi="http://sodipodi.sourceforge.net/DTD/sodipodi-0.dtd"
   xmlns="http://www.w3.org/2000/svg"
   xmlns:svg="http://www.w3.org/2000/svg">
  <sodipodi:namedview
     id="namedview328"
     pagecolor="#ffffff"
     bordercolor="#000000"
     borderopacity="0.25"
     inkscape:showpageshadow="2"
     inkscape:pageopacity="0.0"
     inkscape:pagecheckerboard="0"
     inkscape:deskcolor="#d1d1d1"
     showgrid="false"
     showguides="true"
     inkscape:zoom="1.4244105"
     inkscape:cx="276.25463"
     inkscape:cy="360.14898"
     inkscape:window-width="2560"
     inkscape:window-height="1356"
     inkscape:window-x="1080"
     inkscape:window-y="240"
     inkscape:window-maximized="1"
     inkscape:current-layer="svg326">
    <sodipodi:guide
       position="244.31159,720.29796"
       orientation="0,-1"
       id="guide447"
       inkscape:locked="false" />
    <sodipodi:guide
       position="247.11977,0"
       orientation="0,-1"
       id="guide449"
       inkscape:locked="false" />
    <sodipodi:guide
       position="722.40409,351.0224"
       orientation="1,0"
       id="guide451"
       inkscape:locked="false" />
    <sodipodi:guide
       position="-0.70204479,314.51607"
       orientation="1,0"
       id="guide453"
       inkscape:locked="false" />
  </sodipodi:namedview>
  <g
     clip-path="url(#clip0_1637_2934)"
     id="g316"
     transform="matrix(1.197525,0,0,1.197525,-71.04752,-72.47075)">
    <g
       clip-path="url(#clip1_1637_2934)"
       id="g314">
      <path
         d="m 304.246,294.611 v -45.583 c 0,-3.839 1.441,-6.719 4.798,-8.636 l 91.648,-52.78 c 12.475,-7.197 27.35,-10.554 42.702,-10.554 57.577,0 94.046,44.624 94.046,92.124 0,3.358 0,7.197 -0.481,11.036 l -95.005,-55.66 c -5.757,-3.357 -11.517,-3.357 -17.274,0 z M 518.245,472.145 V 363.224 c 0,-6.719 -2.881,-11.517 -8.637,-14.875 l -120.434,-70.053 39.345,-22.553 c 3.358,-1.917 6.238,-1.917 9.596,0 l 91.647,52.78 c 26.392,15.356 44.143,47.982 44.143,79.648 0,36.465 -21.59,70.054 -55.66,83.97 z m -242.308,-95.963 -39.345,-23.03 c -3.357,-1.917 -4.798,-4.798 -4.798,-8.637 V 238.956 c 0,-51.339 39.345,-90.207 92.606,-90.207 20.155,0 38.864,6.719 54.702,18.714 l -94.524,54.701 c -5.756,3.357 -8.636,8.155 -8.636,14.875 v 139.147 z m 84.689,48.94 -56.38,-31.667 v -67.172 l 56.38,-31.667 56.376,31.667 v 67.172 z m 36.226,145.867 c -20.154,0 -38.863,-6.719 -54.701,-18.713 l 94.523,-54.702 c 5.757,-3.357 8.637,-8.155 8.637,-14.875 V 343.552 l 39.827,23.03 c 3.357,1.917 4.798,4.797 4.798,8.637 v 105.559 c 0,51.339 -39.827,90.207 -93.084,90.207 z M 283.134,463.99 191.486,411.211 c -26.392,-15.357 -44.143,-47.982 -44.143,-79.649 0,-36.946 22.072,-70.053 56.137,-83.969 v 109.398 c 0,6.719 2.881,11.517 8.637,14.875 l 119.957,69.571 -39.345,22.553 c -3.357,1.917 -6.238,1.917 -9.595,0 z m -5.275,78.69 c -54.22,0 -94.046,-40.785 -94.046,-91.166 0,-3.839 0.481,-7.678 0.958,-11.517 l 94.524,54.701 c 5.756,3.358 11.517,3.358 17.273,0 l 120.434,-69.571 v 45.583 c 0,3.839 -1.44,6.719 -4.798,8.636 l -91.647,52.78 c -12.476,7.197 -27.351,10.554 -42.703,10.554 z m 118.993,57.096 c 58.059,0 106.518,-41.263 117.558,-95.964 53.739,-13.916 88.286,-64.297 88.286,-115.636 0,-33.589 -14.393,-66.214 -40.304,-89.726 2.399,-10.077 3.839,-20.154 3.839,-30.226 0,-68.613 -55.66,-119.957 -119.957,-119.957 -12.952,0 -25.428,1.917 -37.904,6.238 -21.595,-21.113 -51.344,-34.547 -83.97,-34.547 -58.058,0 -106.517,41.262 -117.557,95.963 -53.739,13.916 -88.286,64.297 -88.286,115.636 0,33.589 14.393,66.214 40.304,89.726 -2.399,10.077 -3.839,20.154 -3.839,30.227 0,68.613 55.66,119.956 119.956,119.956 12.953,0 25.429,-1.917 37.905,-6.238 21.59,21.113 51.339,34.548 83.969,34.548 z"
         fill="#000000"
         id="path312" />
    </g>
  </g>
  <defs
     id="defs324">
    <clipPath
       id="clip0_1637_2934">
      <rect
         width="720"
         height="720"
         fill="white"
         transform="translate(0.606934 0.0999756)"
         id="rect318" />
    </clipPath>
    <clipPath
       id="clip1_1637_2934">
      <rect
         width="484.139"
         height="479.818"
         fill="white"
         transform="translate(118.557 119.958)"
         id="rect321" />
    </clipPath>
  </defs>
</svg>
