<?xml version="1.0" encoding="UTF-8" standalone="no"?>
<svg
   id="Layer_1"
   version="1.1"
   viewBox="0 0 96 96"
   width="96"
   height="96"
   xmlns="http://www.w3.org/2000/svg"
   xmlns:svg="http://www.w3.org/2000/svg">
  <!-- Generator: Adobe Illustrator 29.3.1, SVG Export Plug-In . SVG Version: 2.1.0 Build 151)  -->
  <defs
     id="defs331">
    <style
       id="style329">
      .st0 {
        fill: #1eafe5;
      }

      .st1 {
        fill: #17457b;
      }

      .st2 {
        fill: #1f66af;
      }

      .st3 {
        fill: #0f1528;
      }
    </style>
  </defs>
  <path
     class="st2"
     d="m 22.654908,10.263727 16.2,15.1 h -22.2 c -0.1,-0.7 -0.2,-1.5 -0.2,-2.3 0,-5.2 2.4,-9.9 6.2,-12.8 z"
     id="path335" />
  <path
     class="st1"
     d="m 82.554908,71.063727 c 0.1,0.7 0.2,1.5 0.2,2.3 0,5.2 -2.4,9.9 -6.2,12.8 l -16.2,-15.1 z"
     id="path337" />
  <path
     class="st3"
     d="m 82.554908,71.063727 h -22.2 l -38.9,-36.3 c -2.5,-2.4 -4.3,-5.7 -4.8,-9.4 h 22.2 l 38.5,35.9 c 2.8,2.5 4.6,5.9 5.2,9.8 z"
     id="path339" />
  <path
     class="st2"
     d="m 76.554908,86.163727 c -2.6,2 -5.8,3.2 -9.3,3.2 h -54.8 l 8.2,-18.3 h 39.7 z"
     id="path341" />
  <path
     class="st0"
     d="m 82.754908,7.0637271 -8.2,18.2999999 h -35.7 l -16.2,-15.1 c 2.6,-1.9999999 5.8,-3.1999999 9.3,-3.1999999 h 50.7 z"
     id="path343" />
</svg>
