<svg xmlns="http://www.w3.org/2000/svg" width="256" height="256" viewBox="0 0 256 256" role="img" aria-label="TypeScript">
  <rect width="256" height="256" rx="36" fill="#3178C6"/>
  <path fill="#fff" d="M63 118h130v20H138v90h-20v-90H63v-20z"/>
  <path fill="#fff" d="M198 118h-40c-16 0-28 12-28 28 0 15 11 24 25 29l7 3c9 4 12 7 12 14 0 7-5 12-14 12-10 0-16-6-18-15l-19 6c4 19 19 29 37 29 22 0 35-13 35-33 0-18-10-27-28-35l-7-3c-8-3-11-6-11-12 0-6 5-10 12-10 8 0 13 4 15 11l19-7c-5-16-17-24-35-24z"/>
</svg>
